<svg width="30" height="30" viewBox="0 0 30 30" fill="none" xmlns="http://www.w3.org/2000/svg">
<circle cx="15" cy="15" r="15" fill="#1E1E1E"/>
<path d="M11.6163 8.36362C11.679 7.95418 11.3979 7.57144 10.9884 7.50874C10.579 7.44605 10.1963 7.72715 10.1336 8.13659L9.67425 11.1365C9.61536 11.5211 9.86034 11.8868 10.2384 11.9787L13.3226 12.7288C13.7251 12.8267 14.1307 12.5797 14.2286 12.1772C14.3265 11.7748 14.0795 11.3691 13.6771 11.2713L12.2212 10.9172C14.2417 9.44677 17.0253 9.6009 18.7711 11.3466C20.7097 13.2853 20.6855 16.5038 18.6534 18.536C16.6213 20.5681 13.4027 20.5922 11.4641 18.6536C11.1712 18.3607 10.6963 18.3607 10.4034 18.6536C10.1105 18.9465 10.1105 19.4214 10.4034 19.7143C12.9562 22.267 17.1249 22.1858 19.7141 19.5966C22.3033 17.0074 22.3845 12.8387 19.8317 10.286C17.5572 8.01146 13.9998 7.828 11.4199 9.64651L11.6163 8.36362Z" fill="#F9FBFD"/>
</svg>
